#N canvas 324 -1209 1931 800 24;
#X obj 421 438 osc~;
#X obj 420 491 dac~;
#X obj 425 101 osc~;
#X obj 422 161 *~;
#X floatatom 416 31 5 0 0 0 - - -;
#X floatatom 505 95 5 0 0 0 - - -;
#X obj 427 249 +~;
#X floatatom 469 201 5 0 0 0 - - -;
#X text 538 202 carrier freq;
#X text 586 88 modulation index;
#X text 494 18 modulation frequency;
#X obj 24 115 osc~;
#X obj 21 175 *~;
#X floatatom 15 45 5 0 0 0 - - -;
#X floatatom 104 109 5 0 0 0 - - -;
#X obj 26 263 +~;
#X floatatom 68 215 5 0 0 0 - - -;
#X text 137 216 carrier freq;
#X text 185 102 modulation index;
#X text 93 32 modulation frequency;
#X obj 1411 644 osc~;
#X obj 1410 697 dac~;
#X obj 1415 307 osc~;
#X obj 1412 367 *~;
#X floatatom 1495 301 5 0 0 0 - - -;
#X obj 1417 455 +~;
#X floatatom 1459 407 5 0 0 0 - - -;
#X text 1528 408 carrier freq;
#X text 1576 294 modulation index;
#X text 1484 224 modulation frequency;
#X obj 1023 124 osc~;
#X obj 1020 184 *~;
#X floatatom 1014 54 5 0 0 0 - - -;
#X floatatom 1103 118 5 0 0 0 - - -;
#X obj 1025 272 +~;
#X floatatom 1067 224 5 0 0 0 - - -;
#X text 1136 225 carrier freq;
#X text 1184 111 modulation index;
#X text 1092 41 modulation frequency;
#X text 65 416 parallel MMFM;
#X text 1535 92 serial MMFM;
#X connect 2 0 3 0;
#X connect 3 0 6 0;
#X connect 4 0 2 0;
#X connect 5 0 3 1;
#X connect 6 0 0 0;
#X connect 7 0 6 1;
#X connect 11 0 12 0;
#X connect 12 0 15 0;
#X connect 13 0 11 0;
#X connect 14 0 12 1;
#X connect 15 0 0 0;
#X connect 16 0 15 1;
#X connect 22 0 23 0;
#X connect 23 0 25 0;
#X connect 24 0 23 1;
#X connect 25 0 20 0;
#X connect 26 0 25 1;
#X connect 30 0 31 0;
#X connect 31 0 34 0;
#X connect 32 0 30 0;
#X connect 33 0 31 1;
#X connect 34 0 22 0;
#X connect 35 0 34 1;
