#N canvas 755 -1177 1149 817 24;
#X obj 592 587 dac~;
#X obj 545 127 adc~;
#X obj 774 262 delwrite~ d1 5000;
#X obj 738 467 vd~ d1;
#X floatatom 815 315 5 0 0 0 - - -;
#X obj 814 403 line~;
#X msg 814 360 \$1 50;
#X obj 568 482 *~ 0.95;
#X connect 1 0 2 0;
#X connect 3 0 7 0;
#X connect 3 0 0 1;
#X connect 3 0 0 0;
#X connect 4 0 6 0;
#X connect 5 0 3 0;
#X connect 6 0 5 0;
#X connect 7 0 2 0;
