#N canvas 126 73 1154 588 10;
#X obj 24 249 osc~;
#X floatatom 24 196 5 0 0 0 - - -;
#X obj 60 228 * 2;
#X obj 60 250 osc~;
#X obj 92 250 osc~;
#X obj 92 228 * 3;
#X obj 123 250 osc~;
#X obj 155 250 osc~;
#X obj 123 228 * 4;
#X obj 155 228 * 5;
#X obj 186 250 osc~;
#X obj 218 250 osc~;
#X obj 249 250 osc~;
#X obj 281 250 osc~;
#X obj 60 271 /~ 2;
#X obj 92 271 /~ 3;
#X obj 123 271 /~ 4;
#X obj 155 271 /~ 5;
#X obj 186 271 /~ 6;
#X obj 218 271 /~ 7;
#X obj 249 271 /~ 8;
#X obj 281 271 /~ 9;
#X obj 186 228 * 6;
#X obj 218 228 * 7;
#X obj 249 228 * 8;
#X obj 281 228 * 9;
#X obj 167 326 +~;
#X obj 167 410 tabwrite~ waveform;
#N canvas 0 22 450 278 (subpatch) 0;
#X array waveform 44 float 5;
#A 0 -0.183855 -0.197505 -0.19108 -0.184842 -0.196455 -0.219831 -0.233585
-0.227641 -0.215232 -0.216062 -0.231975 -0.244957 -0.239595 -0.222229
-0.213101 -0.221264 -0.233118 -0.229001 -0.207722 -0.188495 -0.187345
-0.196595 -0.193399 -0.167972 -0.136845 -0.123461 -0.128447 -0.126648
-0.0970176 -0.0502109 -0.0181828 -0.0146281 -0.0135024 0.0239125 0.100451
0.172314 0.198245 0.199974 0.260718 0.4467 0.722723 0.952057 0.995592
0.825533;
#X coords 0 1 43 -1 200 140 1;
#X restore 393 249 graph;
#X obj 143 372 bng 15 250 50 0 empty empty empty 17 7 0 10 -262144
-1 -1;
#X obj 605 203 spectrogram~;
#X obj 176 388 s~ audioOut;
#X obj 605 183 r~ audioOut;
#X obj 167 347 /~ 3;
#X obj 312 250 osc~;
#X obj 344 250 osc~;
#X obj 312 228 * 10;
#X obj 344 228 * 11;
#X obj 312 271 /~ 10;
#X obj 344 271 /~ 11;
#X msg 165 155 0;
#X connect 0 0 26 0;
#X connect 1 0 0 0;
#X connect 1 0 2 0;
#X connect 1 0 5 0;
#X connect 1 0 8 0;
#X connect 1 0 9 0;
#X connect 1 0 22 0;
#X connect 1 0 23 0;
#X connect 1 0 24 0;
#X connect 1 0 25 0;
#X connect 1 0 36 0;
#X connect 1 0 37 0;
#X connect 2 0 3 0;
#X connect 3 0 14 0;
#X connect 4 0 15 0;
#X connect 5 0 4 0;
#X connect 6 0 16 0;
#X connect 7 0 17 0;
#X connect 8 0 6 0;
#X connect 9 0 7 0;
#X connect 10 0 18 0;
#X connect 11 0 19 0;
#X connect 12 0 20 0;
#X connect 13 0 21 0;
#X connect 14 0 26 0;
#X connect 15 0 26 0;
#X connect 16 0 26 0;
#X connect 17 0 26 1;
#X connect 18 0 26 1;
#X connect 19 0 26 1;
#X connect 20 0 26 1;
#X connect 21 0 26 1;
#X connect 22 0 10 0;
#X connect 23 0 11 0;
#X connect 24 0 12 0;
#X connect 25 0 13 0;
#X connect 26 0 33 0;
#X connect 29 0 27 0;
#X connect 32 0 30 0;
#X connect 33 0 27 0;
#X connect 33 0 31 0;
#X connect 34 0 38 0;
#X connect 35 0 39 0;
#X connect 36 0 34 0;
#X connect 37 0 35 0;
#X connect 38 0 26 1;
#X connect 39 0 26 1;
#X connect 40 0 0 1;
#X connect 40 0 3 1;
#X connect 40 0 4 1;
#X connect 40 0 6 1;
#X connect 40 0 7 1;
#X connect 40 0 10 1;
#X connect 40 0 11 1;
#X connect 40 0 12 1;
#X connect 40 0 13 1;
#X connect 40 0 34 1;
#X connect 40 0 35 1;
