#N canvas 507 296 226 248 10;
#X declare -lib mrpeach;
#X obj 34 15 import mrpeach;
#X obj 33 82 unpackOSC;
#X obj 54 207 dac~;
#X obj 33 152 unpack 0 0;
#X obj 33 128 route /values;
#X obj 33 175 osc~;
#X obj 90 175 osc~;
#X obj 53 108 print;
#X obj 33 54 udpreceive 5005;
#X connect 1 0 4 0;
#X connect 1 0 7 0;
#X connect 3 0 5 0;
#X connect 3 1 6 0;
#X connect 4 0 3 0;
#X connect 5 0 2 0;
#X connect 6 0 2 1;
#X connect 8 0 1 0;
