#N canvas 637 54 1035 444 10;
#X obj 241 258 osc~;
#X obj 241 237 +~;
#X floatatom 256 217 5 0 0 0 - - -;
#X obj 225 195 osc~;
#X obj 225 217 *~;
#X floatatom 256 195 5 0 0 0 - - -;
#X floatatom 225 175 5 0 0 0 - - -;
#X text 291 217 carrier freq;
#X text 291 194 modulation index;
#X text 259 174 modulation freq;
#X obj 319 303 *~;
#X obj 311 353 dac~;
#X obj 379 281 vline~;
#X msg 379 236 1 50 \, 0.5 60 50 \, 0.5 100 110 \, 0 50 210;
#X text 461 171 go to 1 in 50ms;
#X text 461 185 go to 0.5 in 60ms after waiting for 50ms;
#X text 461 199 go to 0.5 in 100ms after waiting for 110ms;
#X text 462 213 go to 0 in 50ms after waiting for 210ms;
#X text 476 303 notice that:;
#X text 475 317 1) waiting time is cummulative for the message;
#X text 476 332 2) the 3rd line is actually a "stay at 0.5 for 100ms"
;
#X connect 0 0 10 0;
#X connect 1 0 0 0;
#X connect 2 0 1 1;
#X connect 3 0 4 0;
#X connect 4 0 1 0;
#X connect 5 0 4 1;
#X connect 6 0 3 0;
#X connect 10 0 11 0;
#X connect 10 0 11 1;
#X connect 12 0 10 1;
#X connect 13 0 12 0;
