#N canvas 0 0 531 909 24;
#X obj 61 189 osc~;
#X floatatom 60 134 5 0 0 0 - - -;
#X obj 131 239 *~;
#X floatatom 162 192 5 0 0 0 - - -;
#X text 57 98 FREQm;
#X text 165 158 AMPxi;
#X obj 210 302 +~;
#X floatatom 266 235 5 0 0 0 - - -;
#X text 279 208 AMP;
#X text 265 107 modulator;
#X text 391 338 carrier;
#X obj 293 427 osc~;
#X text 266 364 FREQc;
#X floatatom 291 389 5 0 0 0 - - -;
#X obj 230 476 *~;
#X obj 206 715 dac~;
#X connect 0 0 2 0;
#X connect 1 0 0 0;
#X connect 2 0 6 0;
#X connect 3 0 2 1;
#X connect 6 0 14 1;
#X connect 7 0 6 1;
#X connect 11 0 14 0;
#X connect 13 0 11 0;
